<svg xmlns="http://www.w3.org/2000/svg" viewBox="0 0 89.12 89.13"><defs><style>.cls-1{fill:#a66249;stroke:#a66249;stroke-miterlimit:10;}</style></defs><title>Ativo 25</title><g id="Camada_2" data-name="Camada 2"><g id="Camada_2-2" data-name="Camada 2"><path class="cls-1" d="M88.22,43.64,77.82,33.23l-.14-.14-.28-.28-.14-.14a16.46,16.46,0,0,0-17.37-3.4A16.48,16.48,0,0,0,56.5,11.86l-.56-.56L45.54.89A1.36,1.36,0,0,0,44.59.5a1.35,1.35,0,0,0-1,.39L33.24,11.3l-.56.56A16.43,16.43,0,0,0,29.3,29.3a16.45,16.45,0,0,0-17.44,3.37l-.14.14-.28.28-.14.14L.89,43.64a1.35,1.35,0,0,0-.39,1,1.32,1.32,0,0,0,.39.94L11.3,55.94l.12.12.32.32.12.12a16.48,16.48,0,0,0,17.41,3.39,16.44,16.44,0,0,0,3.41,17.37l.56.56L43.58,88.16l.13.14a1.37,1.37,0,0,0,.88.33,1.34,1.34,0,0,0,.87-.33L55.94,77.82l.56-.56a16.47,16.47,0,0,0,3.41-17.35A16.47,16.47,0,0,0,77.26,56.5l.56-.56,10.4-10.41a1.29,1.29,0,0,0,.4-.94A1.31,1.31,0,0,0,88.22,43.64Zm-33.67-5A5.89,5.89,0,0,1,58.33,40h0l.8.8h0l3,3,0,0a1.11,1.11,0,0,1,.3.77,1.07,1.07,0,0,1-.29.75l-.07.08-3,3-.79.79,0,0a6,6,0,0,1-6.62.63l-5.22-5.22,5.23-5.24A6,6,0,0,1,54.55,38.61Zm-4,16a5.91,5.91,0,0,1-1.36,3.78h0l-.79.79h0l-3,3-.06.05a1.1,1.1,0,0,1-.76.3,1.11,1.11,0,0,1-.75-.29l-.08-.08-3-3L40,58.36v0a5.91,5.91,0,0,1-1.36-3.78,6,6,0,0,1,.73-2.86l5.22-5.22,5.21,5.22A5.88,5.88,0,0,1,50.51,54.56Zm-15.95-4a5.93,5.93,0,0,1-3.79-1.36h0l-.8-.79h0l-3-3L27,45.33a1.1,1.1,0,0,1,0-1.52.23.23,0,0,1,.07-.07l3-3,.79-.79h0a5.94,5.94,0,0,1,6.69-.6l1.86,1.86,2.4,2.39h0l.94.94h0l-.87.87h0L37.55,49.7A5.86,5.86,0,0,1,34.56,50.52Zm4-16A5.93,5.93,0,0,1,40,30.78h0l.79-.79h0l3-3,.05-.06a1.13,1.13,0,0,1,1.52,0,.3.3,0,0,1,.08.08L48.33,30l.8.8h0a5.92,5.92,0,0,1,.53,6.8l-5.09,5.08-1-1-2.36-2.36L39.32,37.4A5.9,5.9,0,0,1,38.6,34.56Zm-4-20.85.11-.12.24-.23.11-.12L41.22,7.1l2.4-2.4,0,0a1.34,1.34,0,0,1,.93-.37,1.36,1.36,0,0,1,.95.39L48,7.1l6.37,6.37a13.77,13.77,0,0,1,.41,19c-.33.3-.65.62-1,1l-1,1a8.13,8.13,0,0,0-2-5.28l-.9-.89-4.53-4.53a1.11,1.11,0,0,0-1.56,0l0,0-4.49,4.48h0a8.26,8.26,0,0,0-.94.93h0a8.18,8.18,0,0,0-2,5.18l-1.07-1.07q-.43-.4-.84-.84a13.78,13.78,0,0,1,.17-18.82Zm-21,40.73-.23-.23L4.73,45.58a.38.38,0,0,1-.09-.09,1.34,1.34,0,0,1,0-1.85L7.1,41.21l6.37-6.36a13.76,13.76,0,0,1,19.11-.36c.25.23.49.48.72.73l1.16,1.16a8.12,8.12,0,0,0-5.23,2l-.9.89L23.8,43.77a1.16,1.16,0,0,0-.33.8,1.11,1.11,0,0,0,.31.77l0,0,4.49,4.48h0a7.5,7.5,0,0,0,.94.93h0a8.17,8.17,0,0,0,5.25,1.94l-1,1c-.32.29-.62.6-.91.91a13.76,13.76,0,0,1-19-.26ZM58.36,65.91a13.79,13.79,0,0,1-3.92,9.63l-.14.13L48,82,45.58,84.4l-.09.08a1.3,1.3,0,0,1-.9.35,1.34,1.34,0,0,1-.93-.37L35,75.76l-.24-.23a13.77,13.77,0,0,1-.29-18.92c.3-.29.6-.58.89-.89l1-1a8.17,8.17,0,0,0,2,5.22l.9.9,4.53,4.53a1.11,1.11,0,0,0,.79.32,1.15,1.15,0,0,0,.77-.3l0,0,4.49-4.48h0a8.26,8.26,0,0,0,.94-.93h0a8.18,8.18,0,0,0,2-5.19l1,1c.32.34.65.67,1,1l.13.11A13.72,13.72,0,0,1,58.36,65.91ZM84.48,45.49a.38.38,0,0,1-.09.09l-8.63,8.63-.23.23a13.75,13.75,0,0,1-18.72.47l-.1-.13q-.48-.51-1-1l-1-1a8.17,8.17,0,0,0,5.21-2l.9-.9,4.53-4.53a1.11,1.11,0,0,0,0-1.56l0,0L60.8,39.26h0a7.43,7.43,0,0,0-.93-.93h0a8.17,8.17,0,0,0-5.18-1.94l1-1c.32-.29.62-.6.91-.92a13.75,13.75,0,0,1,18.78.21l.12.11.23.24.12.11L82,41.22l2.37,2.37a.28.28,0,0,1,.09.1,1.3,1.3,0,0,1,.35.9A1.33,1.33,0,0,1,84.48,45.49Z"/></g></g></svg>