<svg xmlns="http://www.w3.org/2000/svg" viewBox="0 0 452.32 87.52"><defs><style>.cls-1,.cls-2{fill:#f2f2f2;}.cls-1{stroke:#f2f2f2;stroke-miterlimit:10;}</style></defs><title>Ativo 26</title><g id="Camada_2" data-name="Camada 2"><g id="Camada_2-2" data-name="Camada 2"><path class="cls-1" d="M65.3,32.66,57.62,25l-.1-.11-.21-.2-.1-.11a12.19,12.19,0,0,0-12.84-2.51,12.2,12.2,0,0,0-2.5-12.87l-.41-.41L33.77,1.09a1,1,0,0,0-1.4,0L24.68,8.77l-.41.41a12.17,12.17,0,0,0-2.5,12.89A12.17,12.17,0,0,0,8.89,24.56l-.1.11-.21.2-.1.11L.79,32.66a1,1,0,0,0-.29.7,1,1,0,0,0,.29.7l7.69,7.69.08.09.24.24.09.08a12.18,12.18,0,0,0,12.87,2.51,12,12,0,0,0-.85,4.45,12.1,12.1,0,0,0,3.36,8.38l.41.42,7.64,7.63.1.11a1,1,0,0,0,1.3,0l7.74-7.74.41-.42a12.2,12.2,0,0,0,2.52-12.82,12.14,12.14,0,0,0,12.82-2.52l.41-.41,7.68-7.69a.94.94,0,0,0,.3-.7A1,1,0,0,0,65.3,32.66ZM40.43,29a4.35,4.35,0,0,1,2.79,1h0l.59.58h0L46,32.74l0,0a.79.79,0,0,1,.22.56.84.84,0,0,1-.21.56L46,34l-2.18,2.19-.59.58h0a4.36,4.36,0,0,1-4.89.47l-3.86-3.86,3.87-3.87A4.43,4.43,0,0,1,40.43,29Zm-3,11.78a4.35,4.35,0,0,1-1,2.79h0l-.58.59h0l-2.19,2.19,0,0a.79.79,0,0,1-.56.23.8.8,0,0,1-.56-.22l-.06-.06-2.18-2.18-.58-.59h0a4.35,4.35,0,0,1-1-2.79,4.41,4.41,0,0,1,.54-2.11l3.86-3.86,3.85,3.86A4.38,4.38,0,0,1,37.44,40.73Zm-11.78-3a4.37,4.37,0,0,1-2.8-1h0l-.59-.58h0L20.08,34l0,0a.79.79,0,0,1-.23-.56.8.8,0,0,1,.22-.56s0,0,.06,0l2.18-2.19.58-.58h0a4.37,4.37,0,0,1,4.95-.44l1.37,1.37L31,32.66h0l.69.69h0L31,34h0l-3.13,3.13A4.35,4.35,0,0,1,25.66,37.74Zm3-11.78a4.37,4.37,0,0,1,1-2.8h0l.58-.59h0l2.19-2.19,0,0a.79.79,0,0,1,.56-.23.82.82,0,0,1,.56.22l0,.06,2.19,2.18.58.58h0a4.4,4.4,0,0,1,.39,5l-3.75,3.75-.73-.73L30.6,29.48l-1.42-1.43A4.32,4.32,0,0,1,28.65,26ZM25.7,10.55l.09-.09.17-.17.09-.08,4.53-4.54L32.35,3.9l0,0a1,1,0,0,1,.68-.28,1,1,0,0,1,.7.29l1.79,1.79,4.7,4.71a10.17,10.17,0,0,1,.31,14.06c-.25.23-.48.46-.7.7l-.78.78A6,6,0,0,0,37.64,22L37,21.36,33.63,18a.83.83,0,0,0-1.16,0l0,0-3.31,3.31h0a5.62,5.62,0,0,0-.69.69h0A6,6,0,0,0,27,25.87l-.79-.79c-.21-.2-.42-.41-.62-.62a10.2,10.2,0,0,1,.12-13.91ZM10.17,40.64a1.37,1.37,0,0,1-.17-.17L3.62,34.1,3.56,34a1,1,0,0,1-.26-.67,1,1,0,0,1,.29-.7l1.79-1.79,4.7-4.7a10.18,10.18,0,0,1,14.12-.26c.18.17.36.35.53.53l.86.86a6.05,6.05,0,0,0-3.87,1.45l-.66.67-3.35,3.34a.83.83,0,0,0,0,1.16l0,0L21,37.26h0a6.42,6.42,0,0,0,.69.69h0a6,6,0,0,0,3.87,1.44l-.76.76a8.59,8.59,0,0,0-.67.68,10.17,10.17,0,0,1-14-.2Zm33.07,8.48a10.13,10.13,0,0,1-2.9,7.11l-.09.1L35.56,61,33.8,62.77l-.06.06a1,1,0,0,1-1.35,0L26,56.4l-.17-.18a10.18,10.18,0,0,1-.22-14q.34-.32.66-.66l.77-.77a6,6,0,0,0,1.45,3.86l.67.66,3.34,3.35a.83.83,0,0,0,1.16,0l0,0L37,45.35h0a6.42,6.42,0,0,0,.69-.69h0a6.06,6.06,0,0,0,1.44-3.84l.77.77a10.18,10.18,0,0,0,.73.74l.09.07A10.12,10.12,0,0,1,43.24,49.12ZM62.54,34l-.07.07L56.1,40.47c-.06.06-.11.12-.17.17A10.15,10.15,0,0,1,42.1,41l-.08-.1c-.23-.25-.47-.49-.73-.73l-.77-.77a6,6,0,0,0,3.85-1.45l.66-.67,3.35-3.34a.88.88,0,0,0,.24-.59.84.84,0,0,0-.23-.57l0,0-3.31-3.31h0a6.42,6.42,0,0,0-.69-.69h0a6.09,6.09,0,0,0-3.83-1.44l.77-.77c.24-.21.46-.44.68-.67A10.16,10.16,0,0,1,55.84,26l.09.08.17.18.08.08,4.54,4.54,1.75,1.75a.23.23,0,0,1,.07.07,1,1,0,0,1,.26.66A1,1,0,0,1,62.54,34Z"/><path class="cls-2" d="M132.61,49.35c0,16.18-13.21,16.55-29.2,16.55H81v-.84c4,0,5.36-5.54,5.36-11.83V13.59c0-5.73-1.3-12-5.36-12V.83h22.46c12.84,0,24.86-.55,24.86,15.71,0,13.77-14.7,16-16.55,16C117.73,32.53,132.61,33.55,132.61,49.35ZM99.8,2.4V32.16h3.61c5,0,12-2.12,12-15.8s-7.67-14-12-14ZM119,48.89c0-14.69-9.43-15.16-15.62-15.16H99.8v30.6h3.61C111.45,64.33,119,64.51,119,48.89Z"/><path class="cls-2" d="M191.4,45.75V65.9h-52V64.33c3.88,0,5.36-4.81,5.36-11.1V13.59c0-5.73-1.29-11.19-5.36-11.19V.83H190.2V18.39h-1.58c-2.12-16-27.17-16-27.17-16h-3.33V32.26h3.33s14.05,0,15-9.62H178v20.8h-1.58c-.92-9.61-15-9.61-15-9.61h-3.33v30.5h3.33s24.49,0,28.38-18.58Z"/><path class="cls-2" d="M253.14,45.84V65.9h-52.5V64.33c4,0,6.56-4.07,6.56-10.36V10.63c0-5.64-3.32-8.23-7.3-8.23V.83h29.3V2.4c-4,0-8.59,1.57-8.59,8.23v53.7h3.32s24.49,0,27.64-18.49Z"/><path class="cls-2" d="M323,64.33V65.9H296.58V64.33c7.21,0,2.4-9.89,2.4-9.89l-2.77-6.75h-21.9s-5.73,17.37,8.87,16.64V65.9H260.44V64.33c2.41-.19,4.72.55,13.77-21.35L290.2.83h1.57c22.65,54.35,23.48,56.75,23.48,56.75C318.39,65,320.61,64.14,323,64.33ZM295.66,46.12l-11-27-10.08,27Z"/><path class="cls-2" d="M356.38,66.73l-1.76,5.17c8.42-1.94,12.11,3.24,11.56,7.95-.83,6.2-6.66,7.67-9.71,7.67a10.8,10.8,0,0,1-6.56-1.94,3.1,3.1,0,0,1-1-2.86A2.94,2.94,0,0,1,354.62,84a1.84,1.84,0,0,1-.73,1.3c-.19.18,0,.74,2.58.74,3,0,4.72-2.13,4.62-5,0-1.66-2-7.48-9-6.37l2.77-8C336,66,324.31,51.29,324.31,33.36,324.31,15,336.6,0,356.38,0c9.52,0,18.12.92,23.94,5.64L379,20.15h-1.57C372.28,7.67,366.92,1.57,356.38,1.57,346.12,1.57,341,8,341,33.36s5.45,31.8,15.43,31.8c11.09,0,18.67-8.6,21.07-18.67H379L380.32,61C373.48,65.53,366.27,66.73,356.38,66.73Z"/><path class="cls-2" d="M452.32,2.4c-14-.09-13.77,13.87-13.77,13.87V43.72c0,19.77-14.7,23-22.83,23-12.57,0-22.92-8.5-22.92-23.57V10.54c0-5.64-3.33-8.14-7.39-8.14V.83h29.38V2.4c-4,0-8.59,1.48-8.59,8.14V43.81c0,10.9,6.75,17.37,15.53,17.37,7,0,15.25-5.82,15.25-17.46V16.27s.18-14-12.57-13.87V.83h27.91Z"/></g></g></svg>